<mxfile host="app.diagrams.net" modified="2021-08-27T11:02:38.588Z" agent="5.0 (Macintosh; Intel Mac OS X 10_15_7) AppleWebKit/605.1.15 (KHTML, like Gecko) Version/14.1 Safari/605.1.15" etag="Z5OMVWK8gf_U0J-GtBpu" version="14.9.9" type="github">
  <diagram id="C5RBs43oDa-KdzZeNtuy" name="Page-1">
    <mxGraphModel dx="974" dy="894" grid="1" gridSize="10" guides="1" tooltips="1" connect="1" arrows="1" fold="1" page="1" pageScale="1" pageWidth="827" pageHeight="1169" math="0" shadow="0">
      <root>
        <mxCell id="WIyWlLk6GJQsqaUBKTNV-0" />
        <mxCell id="WIyWlLk6GJQsqaUBKTNV-1" parent="WIyWlLk6GJQsqaUBKTNV-0" />
        <mxCell id="1obplmJRY-TloebmABSp-9" value="" style="rounded=0;whiteSpace=wrap;html=1;dashed=1;fontSize=16;" vertex="1" parent="WIyWlLk6GJQsqaUBKTNV-1">
          <mxGeometry x="90" y="80" width="670" height="160" as="geometry" />
        </mxCell>
        <mxCell id="1obplmJRY-TloebmABSp-0" value="Frontend" style="rounded=0;whiteSpace=wrap;html=1;fontSize=16;" vertex="1" parent="WIyWlLk6GJQsqaUBKTNV-1">
          <mxGeometry x="250" y="130" width="120" height="60" as="geometry" />
        </mxCell>
        <mxCell id="1obplmJRY-TloebmABSp-7" style="edgeStyle=orthogonalEdgeStyle;rounded=0;orthogonalLoop=1;jettySize=auto;html=1;exitX=1;exitY=0.5;exitDx=0;exitDy=0;entryX=0;entryY=0.5;entryDx=0;entryDy=0;fontSize=16;" edge="1" parent="WIyWlLk6GJQsqaUBKTNV-1" source="1obplmJRY-TloebmABSp-1" target="1obplmJRY-TloebmABSp-0">
          <mxGeometry relative="1" as="geometry" />
        </mxCell>
        <mxCell id="1obplmJRY-TloebmABSp-1" value="Source&lt;br style=&quot;font-size: 16px;&quot;&gt;Code" style="text;html=1;strokeColor=none;fillColor=none;align=center;verticalAlign=middle;whiteSpace=wrap;rounded=0;dashed=1;fontSize=16;" vertex="1" parent="WIyWlLk6GJQsqaUBKTNV-1">
          <mxGeometry x="120" y="130" width="90" height="60" as="geometry" />
        </mxCell>
        <mxCell id="1obplmJRY-TloebmABSp-3" value="Optimizer" style="rounded=0;whiteSpace=wrap;html=1;fontSize=16;" vertex="1" parent="WIyWlLk6GJQsqaUBKTNV-1">
          <mxGeometry x="370" y="130" width="120" height="60" as="geometry" />
        </mxCell>
        <mxCell id="1obplmJRY-TloebmABSp-8" style="edgeStyle=orthogonalEdgeStyle;rounded=0;orthogonalLoop=1;jettySize=auto;html=1;exitX=1;exitY=0.5;exitDx=0;exitDy=0;entryX=0;entryY=0.5;entryDx=0;entryDy=0;fontSize=16;" edge="1" parent="WIyWlLk6GJQsqaUBKTNV-1" source="1obplmJRY-TloebmABSp-4" target="1obplmJRY-TloebmABSp-5">
          <mxGeometry relative="1" as="geometry" />
        </mxCell>
        <mxCell id="1obplmJRY-TloebmABSp-4" value="Backend" style="rounded=0;whiteSpace=wrap;html=1;fontSize=16;" vertex="1" parent="WIyWlLk6GJQsqaUBKTNV-1">
          <mxGeometry x="490" y="130" width="120" height="60" as="geometry" />
        </mxCell>
        <mxCell id="1obplmJRY-TloebmABSp-5" value="Machine&lt;br style=&quot;font-size: 16px&quot;&gt;Code" style="text;html=1;strokeColor=none;fillColor=none;align=center;verticalAlign=middle;whiteSpace=wrap;rounded=0;dashed=1;fontSize=16;" vertex="1" parent="WIyWlLk6GJQsqaUBKTNV-1">
          <mxGeometry x="650" y="130" width="90" height="60" as="geometry" />
        </mxCell>
      </root>
    </mxGraphModel>
  </diagram>
</mxfile>
